<svg width="145" height="60" viewBox="0 0 145 60" fill="none" xmlns="http://www.w3.org/2000/svg">
<path d="M5 54V22L27 6L49 22V54H32.5V38.1882H21.5V54H5Z" fill="black"/>
<path d="M57.56 25.4889V21.7556H80.4933V39.7467H76.4756V25.4889H57.56ZM82.0933 47.0356H56.0311V43.2667H65.24V31.64H69.2222V43.2667H82.0933V47.0356ZM93.0407 30.36C92.0925 31.5215 90.8837 32.4815 89.414 33.24C87.9444 33.9748 86.3207 34.4133 84.5429 34.5556V31.32C86.3207 31.083 87.7903 30.5022 88.9518 29.5778C90.137 28.6533 90.8955 27.4919 91.2274 26.0933H84.8274V22.9644H91.4051V20.4044H95.2807V22.9644H101.752V26.0933H95.174C95.0318 26.8044 94.9014 27.3259 94.7829 27.6578L102.178 31.3556L100.685 34.2356L93.0407 30.36ZM104.952 34.6267V20.9022H108.792V34.6267H104.952ZM109.29 47.9956H86.3207V40.6356H105.023V38.7511H86.2496V35.9067H108.792V43.2667H90.0896V45.1867H109.29V47.9956ZM137.659 48.2089H133.997V20.9022H137.659V48.2089ZM131.046 21.0444V47.7467H127.384V35.3378H123.401C122.69 38.917 121.398 41.7022 119.526 43.6933C117.653 45.6607 115.437 46.6563 112.877 46.68V42.8756C114.347 42.8044 115.627 42.2356 116.717 41.1689C117.831 40.0785 118.684 38.5496 119.277 36.5822C119.893 34.5911 120.201 32.2563 120.201 29.5778V25.4178H112.877V21.7556H123.899V29.4C123.899 30.3719 123.875 31.083 123.828 31.5333H127.384V21.0444H131.046Z" fill="black"/>
</svg>
